<mxfile host="app.diagrams.net" modified="2023-10-05T09:30:19.981Z" agent="Mozilla/5.0 (Windows NT 10.0; Win64; x64) AppleWebKit/537.36 (KHTML, like Gecko) Chrome/117.0.0.0 Safari/537.36" etag="BuPQTV5e2C21Aho0Ue4K" version="22.0.2" type="device">
  <diagram name="Page-1" id="0kXHbkbo4lad759rcu0E">
    <mxGraphModel dx="1850" dy="509" grid="1" gridSize="10" guides="1" tooltips="1" connect="1" arrows="1" fold="1" page="1" pageScale="1" pageWidth="850" pageHeight="1100" math="0" shadow="0">
      <root>
        <mxCell id="0" />
        <mxCell id="1" parent="0" />
        <mxCell id="dUDTqOCsBqOlP5Mwcn8Q-9" value="" style="sketch=0;aspect=fixed;pointerEvents=1;shadow=0;dashed=0;html=1;strokeColor=none;labelPosition=center;verticalLabelPosition=bottom;verticalAlign=top;align=center;fillColor=#00188D;shape=mxgraph.azure.computer" vertex="1" parent="1">
          <mxGeometry x="60" y="200" width="110" height="99" as="geometry" />
        </mxCell>
        <mxCell id="dUDTqOCsBqOlP5Mwcn8Q-10" value="" style="sketch=0;aspect=fixed;pointerEvents=1;shadow=0;dashed=0;html=1;strokeColor=none;labelPosition=center;verticalLabelPosition=bottom;verticalAlign=top;align=center;fillColor=#00188D;shape=mxgraph.azure.computer" vertex="1" parent="1">
          <mxGeometry x="60" y="360" width="110" height="99" as="geometry" />
        </mxCell>
        <mxCell id="dUDTqOCsBqOlP5Mwcn8Q-11" value="" style="sketch=0;aspect=fixed;pointerEvents=1;shadow=0;dashed=0;html=1;strokeColor=none;labelPosition=center;verticalLabelPosition=bottom;verticalAlign=top;align=center;fillColor=#00188D;shape=mxgraph.azure.computer" vertex="1" parent="1">
          <mxGeometry x="60" y="520" width="110" height="99" as="geometry" />
        </mxCell>
        <mxCell id="dUDTqOCsBqOlP5Mwcn8Q-12" value="" style="endArrow=none;html=1;rounded=0;exitX=1;exitY=0.4;exitDx=0;exitDy=0;exitPerimeter=0;" edge="1" parent="1" source="dUDTqOCsBqOlP5Mwcn8Q-9">
          <mxGeometry width="50" height="50" relative="1" as="geometry">
            <mxPoint x="400" y="450" as="sourcePoint" />
            <mxPoint x="350" y="400" as="targetPoint" />
          </mxGeometry>
        </mxCell>
        <mxCell id="dUDTqOCsBqOlP5Mwcn8Q-13" value="" style="endArrow=none;html=1;rounded=0;exitX=1.015;exitY=0.4;exitDx=0;exitDy=0;exitPerimeter=0;" edge="1" parent="1" source="dUDTqOCsBqOlP5Mwcn8Q-10">
          <mxGeometry width="50" height="50" relative="1" as="geometry">
            <mxPoint x="400" y="450" as="sourcePoint" />
            <mxPoint x="350" y="400" as="targetPoint" />
          </mxGeometry>
        </mxCell>
        <mxCell id="dUDTqOCsBqOlP5Mwcn8Q-14" value="" style="endArrow=none;html=1;rounded=0;exitX=1.015;exitY=0.416;exitDx=0;exitDy=0;exitPerimeter=0;" edge="1" parent="1" source="dUDTqOCsBqOlP5Mwcn8Q-11">
          <mxGeometry width="50" height="50" relative="1" as="geometry">
            <mxPoint x="400" y="450" as="sourcePoint" />
            <mxPoint x="350" y="400" as="targetPoint" />
          </mxGeometry>
        </mxCell>
        <mxCell id="dUDTqOCsBqOlP5Mwcn8Q-16" value="&lt;b&gt;Database Server&lt;/b&gt;" style="text;html=1;strokeColor=none;fillColor=none;align=center;verticalAlign=middle;whiteSpace=wrap;rounded=0;" vertex="1" parent="1">
          <mxGeometry x="360" y="470" width="90" height="30" as="geometry" />
        </mxCell>
        <mxCell id="dUDTqOCsBqOlP5Mwcn8Q-17" value="&lt;b&gt;Staff 01&lt;/b&gt;" style="text;html=1;strokeColor=none;fillColor=none;align=center;verticalAlign=middle;whiteSpace=wrap;rounded=0;" vertex="1" parent="1">
          <mxGeometry x="70" y="310" width="90" height="30" as="geometry" />
        </mxCell>
        <mxCell id="dUDTqOCsBqOlP5Mwcn8Q-18" value="&lt;b&gt;Staff 02&lt;/b&gt;" style="text;html=1;strokeColor=none;fillColor=none;align=center;verticalAlign=middle;whiteSpace=wrap;rounded=0;" vertex="1" parent="1">
          <mxGeometry x="70" y="470" width="90" height="30" as="geometry" />
        </mxCell>
        <mxCell id="dUDTqOCsBqOlP5Mwcn8Q-19" value="&lt;b&gt;Admin&lt;/b&gt;" style="text;html=1;strokeColor=none;fillColor=none;align=center;verticalAlign=middle;whiteSpace=wrap;rounded=0;" vertex="1" parent="1">
          <mxGeometry x="70" y="640" width="90" height="30" as="geometry" />
        </mxCell>
        <mxCell id="dUDTqOCsBqOlP5Mwcn8Q-20" value="" style="image;aspect=fixed;perimeter=ellipsePerimeter;html=1;align=center;shadow=0;dashed=0;spacingTop=3;image=img/lib/active_directory/database_server.svg;" vertex="1" parent="1">
          <mxGeometry x="350" y="299" width="139.4" height="170" as="geometry" />
        </mxCell>
        <mxCell id="dUDTqOCsBqOlP5Mwcn8Q-21" value="" style="image;aspect=fixed;perimeter=ellipsePerimeter;html=1;align=center;shadow=0;dashed=0;spacingTop=3;image=img/lib/active_directory/internet_cloud.svg;" vertex="1" parent="1">
          <mxGeometry x="-220" y="160" width="111.12" height="70" as="geometry" />
        </mxCell>
        <mxCell id="dUDTqOCsBqOlP5Mwcn8Q-22" value="" style="endArrow=none;html=1;rounded=0;" edge="1" parent="1">
          <mxGeometry width="50" height="50" relative="1" as="geometry">
            <mxPoint x="40" y="200" as="sourcePoint" />
            <mxPoint x="-110" y="200" as="targetPoint" />
          </mxGeometry>
        </mxCell>
        <mxCell id="dUDTqOCsBqOlP5Mwcn8Q-23" value="" style="endArrow=none;html=1;rounded=0;" edge="1" parent="1">
          <mxGeometry width="50" height="50" relative="1" as="geometry">
            <mxPoint x="40" y="560" as="sourcePoint" />
            <mxPoint x="40" y="200" as="targetPoint" />
          </mxGeometry>
        </mxCell>
        <mxCell id="dUDTqOCsBqOlP5Mwcn8Q-24" value="" style="endArrow=none;html=1;rounded=0;entryX=0.029;entryY=0.4;entryDx=0;entryDy=0;entryPerimeter=0;" edge="1" parent="1" target="dUDTqOCsBqOlP5Mwcn8Q-9">
          <mxGeometry width="50" height="50" relative="1" as="geometry">
            <mxPoint x="40" y="240" as="sourcePoint" />
            <mxPoint x="130" y="360" as="targetPoint" />
          </mxGeometry>
        </mxCell>
        <mxCell id="dUDTqOCsBqOlP5Mwcn8Q-25" value="" style="endArrow=none;html=1;rounded=0;" edge="1" parent="1">
          <mxGeometry width="50" height="50" relative="1" as="geometry">
            <mxPoint x="40" y="400" as="sourcePoint" />
            <mxPoint x="60" y="400" as="targetPoint" />
          </mxGeometry>
        </mxCell>
        <mxCell id="dUDTqOCsBqOlP5Mwcn8Q-26" value="" style="endArrow=none;html=1;rounded=0;entryX=0.044;entryY=0.4;entryDx=0;entryDy=0;entryPerimeter=0;" edge="1" parent="1" target="dUDTqOCsBqOlP5Mwcn8Q-11">
          <mxGeometry width="50" height="50" relative="1" as="geometry">
            <mxPoint x="40" y="560" as="sourcePoint" />
            <mxPoint x="130" y="360" as="targetPoint" />
          </mxGeometry>
        </mxCell>
        <mxCell id="dUDTqOCsBqOlP5Mwcn8Q-27" value="" style="image;aspect=fixed;perimeter=ellipsePerimeter;html=1;align=center;shadow=0;dashed=0;spacingTop=3;image=img/lib/active_directory/windows_server_2.svg;" vertex="1" parent="1">
          <mxGeometry x="-380" y="145" width="80" height="100" as="geometry" />
        </mxCell>
        <mxCell id="dUDTqOCsBqOlP5Mwcn8Q-28" value="" style="endArrow=none;html=1;rounded=0;entryX=0;entryY=0.5;entryDx=0;entryDy=0;" edge="1" parent="1" source="dUDTqOCsBqOlP5Mwcn8Q-27" target="dUDTqOCsBqOlP5Mwcn8Q-21">
          <mxGeometry width="50" height="50" relative="1" as="geometry">
            <mxPoint x="80" y="410" as="sourcePoint" />
            <mxPoint x="130" y="360" as="targetPoint" />
          </mxGeometry>
        </mxCell>
        <mxCell id="dUDTqOCsBqOlP5Mwcn8Q-29" value="&lt;b&gt;Internet&lt;/b&gt;" style="text;html=1;strokeColor=none;fillColor=none;align=center;verticalAlign=middle;whiteSpace=wrap;rounded=0;" vertex="1" parent="1">
          <mxGeometry x="-209.44" y="245" width="90" height="30" as="geometry" />
        </mxCell>
        <mxCell id="dUDTqOCsBqOlP5Mwcn8Q-30" value="&lt;b&gt;Microsoft Email server&lt;/b&gt;" style="text;html=1;strokeColor=none;fillColor=none;align=center;verticalAlign=middle;whiteSpace=wrap;rounded=0;" vertex="1" parent="1">
          <mxGeometry x="-400" y="245" width="90" height="30" as="geometry" />
        </mxCell>
      </root>
    </mxGraphModel>
  </diagram>
</mxfile>
